<?xml version="1.0" encoding="UTF-8" standalone="no"?><!DOCTYPE svg PUBLIC "-//W3C//DTD SVG 1.1//EN" "http://www.w3.org/Graphics/SVG/1.1/DTD/svg11.dtd"><svg width="100%" height="100%" viewBox="0 0 400 160" version="1.1" xmlns="http://www.w3.org/2000/svg" xmlns:xlink="http://www.w3.org/1999/xlink" xml:space="preserve" xmlns:serif="http://www.serif.com/" style="fill-rule:evenodd;clip-rule:evenodd;stroke-linecap:round;stroke-linejoin:round;stroke-miterlimit:1.5;"><path d="M48.537,111.72l73.816,-0" style="fill:none;stroke:#c8c8c8;stroke-width:1.04px;"/><path d="M48.537,111.72l-26.446,23.992" style="fill:none;stroke:#c8c8c8;stroke-width:1.04px;"/><path d="M22.091,135.712l-62.44,-0" style="fill:none;stroke:#c8c8c8;stroke-width:1.04px;"/><path d="M400.661,135.712l58.99,-0" style="fill:none;stroke:#c8c8c8;stroke-width:1.04px;"/><path d="M122.353,111.72l-0,-35.002" style="fill:none;stroke:#c8c8c8;stroke-width:1.04px;"/><path d="M135.017,76.718l0,35.002" style="fill:none;stroke:#c8c8c8;stroke-width:1.04px;"/><path d="M157.242,111.72l7.289,-0" style="fill:none;stroke:#c8c8c8;stroke-width:1.04px;"/><path d="M144.578,111.72l-9.561,-0" style="fill:none;stroke:#c8c8c8;stroke-width:1.04px;"/><path d="M164.531,111.72l15.915,23.992" style="fill:none;stroke:#c8c8c8;stroke-width:1.04px;"/><path d="M180.446,135.712l29.205,-0" style="fill:none;stroke:#c8c8c8;stroke-width:1.04px;"/><path d="M209.651,135.712l-0,-85.57" style="fill:none;stroke:#c8c8c8;stroke-width:1.04px;"/><path d="M209.651,50.142l27.042,15.613" style="fill:none;stroke:#c8c8c8;stroke-width:1.04px;"/><path d="M236.693,65.871l0,27.056" style="fill:none;stroke:#c8c8c8;stroke-width:1.04px;"/><path d="M236.693,92.927l5.62,0" style="fill:none;stroke:#c8c8c8;stroke-width:1.04px;"/><path d="M242.313,92.927l-0,-23.818" style="fill:none;stroke:#c8c8c8;stroke-width:1.04px;"/><path d="M242.313,69.109l25.073,14.476" style="fill:none;stroke:#c8c8c8;stroke-width:1.04px;"/><path d="M267.386,83.585l0,52.127" style="fill:none;stroke:#c8c8c8;stroke-width:1.04px;"/><path d="M236.693,98.269l0,37.443" style="fill:none;stroke:#c8c8c8;stroke-width:1.04px;"/><path d="M242.313,98.269l-0,37.443" style="fill:none;stroke:#c8c8c8;stroke-width:1.04px;"/><path d="M236.693,98.269l5.62,0" style="fill:none;stroke:#c8c8c8;stroke-width:1.04px;"/><path d="M267.386,135.712l24.536,-0" style="fill:none;stroke:#c8c8c8;stroke-width:1.04px;"/><path d="M291.922,135.712l6.146,-0" style="fill:none;stroke:#c8c8c8;stroke-width:1.04px;"/><path d="M298.068,135.712l0,-74.177" style="fill:none;stroke:#c8c8c8;stroke-width:1.04px;"/><path d="M304.155,61.535l-0,74.177" style="fill:none;stroke:#c8c8c8;stroke-width:1.04px;"/><path d="M304.155,135.712l28.724,-0" style="fill:none;stroke:#c8c8c8;stroke-width:1.04px;"/><path d="M332.879,135.712l0,-32.825" style="fill:none;stroke:#c8c8c8;stroke-width:1.04px;"/><path d="M365.772,135.712l-0,-32.825" style="fill:none;stroke:#c8c8c8;stroke-width:1.04px;"/><path d="M332.879,102.887l3.982,-0" style="fill:none;stroke:#c8c8c8;stroke-width:1.04px;"/><path d="M365.772,102.887l-3.96,-0" style="fill:none;stroke:#c8c8c8;stroke-width:1.04px;"/><path d="M336.861,102.887l0,-1.486" style="fill:none;stroke:#c8c8c8;stroke-width:1.04px;"/><path d="M336.861,101.401l-3.982,0" style="fill:none;stroke:#c8c8c8;stroke-width:1.04px;"/><path d="M332.879,101.401l0,-12.524" style="fill:none;stroke:#c8c8c8;stroke-width:1.04px;"/><path d="M361.812,102.887l-0,-1.486" style="fill:none;stroke:#c8c8c8;stroke-width:1.04px;"/><path d="M361.812,101.401l3.96,0" style="fill:none;stroke:#c8c8c8;stroke-width:1.04px;"/><path d="M365.772,101.401l-0,-12.524" style="fill:none;stroke:#c8c8c8;stroke-width:1.04px;"/><path d="M332.879,88.877l0,-8.787" style="fill:none;stroke:#c8c8c8;stroke-width:1.04px;"/><path d="M365.772,88.877l-0,-8.787" style="fill:none;stroke:#c8c8c8;stroke-width:1.04px;"/><path d="M332.879,80.09l8.034,0" style="fill:none;stroke:#c8c8c8;stroke-width:1.04px;"/><path d="M365.772,80.09l-8.01,0" style="fill:none;stroke:#c8c8c8;stroke-width:1.04px;"/><path d="M340.913,80.09l-0,-6.985" style="fill:none;stroke:#c8c8c8;stroke-width:1.04px;"/><path d="M357.762,80.09l0,-6.985" style="fill:none;stroke:#c8c8c8;stroke-width:1.04px;"/><path d="M357.762,73.105l-16.849,-0" style="fill:none;stroke:#c8c8c8;stroke-width:1.04px;"/><path d="M298.068,61.535l-3.073,-0.99" style="fill:none;stroke:#c8c8c8;stroke-width:1.04px;"/><path d="M294.995,60.545l0,-5.508" style="fill:none;stroke:#c8c8c8;stroke-width:1.04px;"/><path d="M304.155,61.535l3.115,-0.99" style="fill:none;stroke:#c8c8c8;stroke-width:1.04px;"/><path d="M307.27,60.545l0,-5.508" style="fill:none;stroke:#c8c8c8;stroke-width:1.04px;"/><path d="M294.995,55.037l3.073,0" style="fill:none;stroke:#c8c8c8;stroke-width:1.04px;"/><path d="M307.27,55.037l-3.115,0" style="fill:none;stroke:#c8c8c8;stroke-width:1.04px;"/><path d="M298.068,55.037l0,-1.496" style="fill:none;stroke:#c8c8c8;stroke-width:1.04px;"/><path d="M298.068,53.541l-3.073,-0" style="fill:none;stroke:#c8c8c8;stroke-width:1.04px;"/><path d="M304.155,55.037l-0,-1.496" style="fill:none;stroke:#c8c8c8;stroke-width:1.04px;"/><path d="M304.155,53.541l3.115,-0" style="fill:none;stroke:#c8c8c8;stroke-width:1.04px;"/><path d="M294.995,53.541l0,-6.059" style="fill:none;stroke:#c8c8c8;stroke-width:1.04px;"/><path d="M307.27,53.541l0,-6.059" style="fill:none;stroke:#c8c8c8;stroke-width:1.04px;"/><path d="M294.995,46.966l5.098,-0.203" style="fill:none;stroke:#c8c8c8;stroke-width:1.04px;"/><path d="M307.27,46.966l-5.309,-0.203" style="fill:none;stroke:#c8c8c8;stroke-width:1.04px;"/><path d="M300.093,46.763l0,-13.861" style="fill:none;stroke:#c8c8c8;stroke-width:1.04px;"/><path d="M301.961,46.323l0,-13.421" style="fill:none;stroke:#c8c8c8;stroke-width:1.04px;"/><path d="M300.093,32.902l0,-8.614" style="fill:none;stroke:#c8c8c8;stroke-width:1.04px;"/><path d="M301.961,32.902l0,-8.614" style="fill:none;stroke:#c8c8c8;stroke-width:1.04px;"/><path d="M300.093,24.288l1.868,0" style="fill:none;stroke:#c8c8c8;stroke-width:1.04px;"/><path d="M365.772,135.605l34.899,0" style="fill:none;stroke:#c8c8c8;stroke-width:1.04px;"/><path d="M236.693,135.712l5.62,-0" style="fill:none;stroke:#c8c8c8;stroke-width:1.04px;"/><path d="M122.363,76.718c-0.936,-1.278 -2.808,-3.834 -2.782,-5.792c0.026,-1.958 1.501,-4.527 2.938,-5.955c2.216,-2.202 9.737,-2.252 12.498,0.12c1.653,1.42 2.865,4.227 2.865,6.165c-0,1.937 -1.91,4.287 -2.865,5.462" style="fill:none;stroke:#c8c8c8;stroke-width:1.04px;"/><path d="M144.578,111.72l-0,-35.002" style="fill:none;stroke:#c8c8c8;stroke-width:1.04px;"/><path d="M157.242,76.718l0,35.002" style="fill:none;stroke:#c8c8c8;stroke-width:1.04px;"/><path d="M144.588,76.718c-0.936,-1.278 -2.808,-3.834 -2.782,-5.792c0.026,-1.958 1.501,-4.527 2.938,-5.955c2.216,-2.202 9.737,-2.252 12.498,0.12c1.653,1.42 2.865,4.227 2.865,6.165c-0,1.937 -1.91,4.287 -2.865,5.462" style="fill:none;stroke:#c8c8c8;stroke-width:1.04px;"/></svg>